<svg width="392" height="442" viewBox="0 0 392 442" fill="none" xmlns="http://www.w3.org/2000/svg">
<g clip-path="url(#clip0_370_949)">
<path opacity="0.4" d="M449.097 367.445C326.615 275.583 219.444 183.722 127.583 91.8611" stroke="#FBCFE8" stroke-width="1.37792" stroke-dasharray="0.92 0.92"/>
<path opacity="0.4" d="M430.725 367.445C320.491 266.397 219.444 168.412 127.583 73.489" stroke="#FBCFE8" stroke-width="1.37792" stroke-dasharray="0.92 0.92"/>
<path opacity="0.4" d="M412.352 367.445C314.367 257.211 219.444 153.102 127.583 55.1167" stroke="#FBCFE8" stroke-width="1.37792" stroke-dasharray="0.92 0.92"/>
<path opacity="0.4" d="M393.98 367.445C308.243 248.025 219.444 137.792 127.583 36.7445" stroke="#FBCFE8" stroke-width="1.37792" stroke-dasharray="0.92 0.92"/>
<path opacity="0.4" d="M375.608 367.445C302.119 238.839 219.444 122.482 127.583 18.3723" stroke="#FBCFE8" stroke-width="1.37792" stroke-dasharray="0.92 0.92"/>
<path opacity="0.4" d="M357.236 367.445C295.995 229.653 219.444 107.171 127.583 0" stroke="#FBCFE8" stroke-width="1.37792" stroke-dasharray="0.92 0.92"/>
<path opacity="0.4" d="M338.863 367.445C289.871 220.467 219.444 91.8612 127.583 -18.3723" stroke="#FBCFE8" stroke-width="1.37792" stroke-dasharray="0.92 0.92"/>
<path opacity="0.4" d="M320.491 367.445C283.747 211.281 219.444 76.551 127.583 -36.7445" stroke="#FBCFE8" stroke-width="1.37792" stroke-dasharray="0.92 0.92"/>
<path opacity="0.4" d="M302.119 367.445C277.623 202.095 219.444 61.2408 127.583 -55.1167" stroke="#FBCFE8" stroke-width="1.37792" stroke-dasharray="0.92 0.92"/>
<path opacity="0.4" d="M283.747 367.445C271.498 192.908 219.444 45.9306 127.583 -73.489" stroke="#FBCFE8" stroke-width="1.37792" stroke-dasharray="0.92 0.92"/>
<path opacity="0.4" d="M265.374 367.445C265.374 183.722 219.444 30.6204 127.583 -91.8612" stroke="#FBCFE8" stroke-width="1.37792" stroke-dasharray="0.92 0.92"/>
<path opacity="0.4" d="M247.002 367.445C259.25 174.536 219.444 15.3102 127.583 -110.233" stroke="#FBCFE8" stroke-width="1.37792" stroke-dasharray="0.92 0.92"/>
<path opacity="0.4" d="M228.63 367.445C253.126 165.35 219.444 -3.52859e-05 127.583 -128.606" stroke="#FBCFE8" stroke-width="1.37792" stroke-dasharray="0.92 0.92"/>
<path opacity="0.4" d="M210.258 367.445C247.002 156.164 219.444 -15.3102 127.583 -146.978" stroke="#FBCFE8" stroke-width="1.37792" stroke-dasharray="0.92 0.92"/>
<path opacity="0.4" d="M191.885 367.445C240.878 146.978 219.444 -30.6204 127.583 -165.35" stroke="#FBCFE8" stroke-width="1.37792" stroke-dasharray="0.92 0.92"/>
</g>
<defs>
<clipPath id="clip0_370_949">
<rect width="423.878" height="459.306" fill="white" transform="translate(-15.4602)"/>
</clipPath>
</defs>
</svg>
