<svg width="24" height="24" viewBox="0 0 24 24" fill="none" xmlns="http://www.w3.org/2000/svg">
<rect x="0.5" y="0.5" width="23" height="23" rx="3.5" fill="#DBFFF9"/>
<rect x="0.5" y="0.5" width="23" height="23" rx="3.5" stroke="#2B8073"/>
<path fill-rule="evenodd" clip-rule="evenodd" d="M17.6999 8.19025C18.0099 8.46425 18.0389 8.93825 17.7649 9.25025L12.0149 15.7502C11.9485 15.8253 11.8678 15.8863 11.7774 15.9297C11.687 15.973 11.5888 15.9978 11.4887 16.0025C11.3886 16.0073 11.2885 15.9919 11.1944 15.9574C11.1004 15.9228 11.0142 15.8697 10.9409 15.8012L7.19094 12.3012C7.04668 12.1653 6.96211 11.9778 6.95571 11.7796C6.94932 11.5815 7.02162 11.3889 7.15682 11.2439C7.29201 11.0989 7.4791 11.0134 7.67719 11.006C7.87528 10.9985 8.06826 11.0698 8.21394 11.2042L11.4039 14.1742L16.6439 8.25425C16.7093 8.18034 16.7885 8.12005 16.8772 8.07682C16.9659 8.0336 17.0622 8.00828 17.1607 8.00234C17.2591 7.99639 17.3578 8.00993 17.451 8.04218C17.5442 8.07442 17.6302 8.12474 17.7039 8.19025H17.6999Z" fill="#2B8073"/>
</svg>
